<svg width="193" height="73" viewBox="0 0 193 73" fill="none" xmlns="http://www.w3.org/2000/svg">
<g clip-path="url(#clip0_86_5)">
<g clip-path="url(#clip1_86_5)">
<path d="M85.55 24.93C86.01 24.8 86.26 24.5 86.34 23.99C86.57 22.15 86.57 20.21 86.57 18.27C86.57 16.61 86.57 14.95 86.49 13.34C86.44 12.42 86.26 11.99 85.52 11.76C85.03 11.61 84.78 11.4 84.78 10.84C84.78 9.84 85.42 9.38 86.29 9.38C87 9.38 88.13 9.48 89.71 9.48C91.01 9.48 93.54 9.4 97.14 9.4C101.68 9.4 105.23 13.38 105.23 17.88C105.23 20.69 104.29 22.91 102.83 24.52C100.84 26.72 99 27.28 95.71 27.28C94.05 27.28 92.01 27.2 89.71 27.2C88.36 27.2 87.23 27.28 86.6 27.28C85.55 27.28 84.79 27.28 84.79 26.03C84.79 25.26 85.15 25.03 85.56 24.93H85.55ZM94.41 24.19C97.58 24.19 98.19 21.84 98.19 18.68C98.19 14.57 96.33 12.3 93.75 12.3C92.96 12.3 93.09 13.32 92.98 14.8C92.95 15.26 92.93 16.94 92.93 18.6C92.93 20.03 92.98 21.71 93.06 22.38C93.19 23.78 93.24 24.19 94.41 24.19Z" fill="#F3E4D6"/>
<path d="M123 22.02C123.54 23.22 124.17 24.42 124.71 24.8C125.12 25.06 125.81 24.75 125.81 25.9C125.81 26.74 125.5 27.28 124.58 27.28C123.53 27.28 122.03 27.2 120.16 27.2C119.22 27.2 117.35 27.28 116.28 27.28C115.21 27.28 114.95 27.02 114.95 26.11C114.95 24.91 115.46 24.94 115.84 24.76C116.2 24.58 116.48 24.38 116.48 23.82C116.48 22.87 115.92 22.87 113.54 22.87C112.7 22.87 112.08 22.87 111.32 23C110.96 23.05 110.68 23.31 110.68 24.05C110.68 24.56 110.94 24.71 111.22 24.79C111.63 24.92 112.14 24.94 112.14 25.89C112.14 26.91 111.81 27.29 110.91 27.29C110.37 27.29 109.35 27.21 108.15 27.21C107.64 27.21 106.54 27.29 105.78 27.29C104.96 27.29 104.71 27.09 104.71 25.86C104.71 24.63 105.71 24.97 106.37 24.48C106.8 24.17 107.49 22.82 108.05 21.62C109.94 17.43 111.22 13.42 112.98 10.21C113.39 9.46998 113.54 9.41998 115.33 9.41998C116.17 9.41998 116.81 9.41998 117.19 9.46998C117.67 9.54998 117.75 9.64998 118.03 10.24C119.72 14.2 121.32 18.28 122.98 22.03L123 22.02ZM112.68 18.17C112.37 18.78 112.09 19.68 112.09 19.88C112.09 20.11 112.65 20.11 113.49 20.11C114.56 20.11 114.95 20.08 114.95 19.75C114.95 19.52 114.7 18.86 114.49 18.37C114.13 17.53 113.8 16.76 113.47 16.76C113.24 16.76 113.04 17.37 112.68 18.16V18.17Z" fill="#F3E4D6"/>
<path d="M128.28 9.48998C128.66 9.48998 132.03 9.40998 132.72 9.40998C133.18 9.40998 133.64 9.81998 133.64 10.58C133.64 11.29 133.18 11.63 132.77 11.93C132.51 12.11 131.98 12.36 131.98 13.05C131.98 14.22 133.13 17.08 133.67 18.28C133.85 18.71 134.15 19.05 134.44 19.05C134.82 19.05 135.18 18.31 135.33 17.98C135.89 16.78 136.94 14.41 136.94 13.03C136.94 12.42 136.53 12.16 136.07 11.93C135.56 11.68 135.2 11.32 135.2 10.6C135.2 9.52998 135.58 9.39998 136.32 9.39998C137.11 9.39998 138.44 9.47998 139.38 9.47998C140.55 9.47998 141.78 9.39998 142.47 9.39998C143.44 9.39998 143.72 9.93998 143.72 10.65C143.72 11.59 143.47 11.88 142.55 12.18C142.27 12.28 142.01 12.43 141.78 12.77C140.58 14.56 136.88 22.65 134.12 26.96C133.61 27.75 133.05 28.11 132.26 28.11C131.39 28.11 130.91 27.75 130.6 27.11C129.45 24.79 125.57 15.67 124.09 12.79C123.94 12.48 123.66 12.18 123.2 12.1C122.61 12 122.23 11.54 122.23 10.77C122.23 9.84998 122.61 9.38998 123.76 9.38998C124.91 9.38998 126.82 9.46998 128.28 9.46998V9.48998Z" fill="#F3E4D6"/>
<path d="M154.11 11.84C153.73 11.92 153.29 11.99 153.24 12.4C152.98 14.19 152.93 16.1 152.93 17.99C152.93 19.88 152.93 21.84 152.98 23.58C153.01 24.09 153.34 24.83 154.03 25.04C154.57 25.19 154.8 25.53 154.8 25.86C154.8 26.65 154.65 27.29 153.93 27.29C152.81 27.29 151.05 27.21 149.67 27.21C148.01 27.21 146.5 27.29 145.36 27.29C144.95 27.29 144.75 26.65 144.75 26.29C144.75 25.7 144.9 25.27 145.36 25.07C146.15 24.74 146.23 24.64 146.38 23.97C146.71 21.83 146.74 19.94 146.74 17.64C146.74 15.78 146.71 14.5 146.64 12.71C146.61 12.12 146.44 11.97 145.77 11.77C145.29 11.62 145.18 11.31 145.18 10.57C145.18 9.90998 145.46 9.41998 146.18 9.41998C147.38 9.44998 148.32 9.51998 150.34 9.51998C151.39 9.51998 153.15 9.43998 153.99 9.43998C154.58 9.43998 154.91 10.05 154.91 10.61C154.91 11.35 154.63 11.73 154.12 11.84H154.11Z" fill="#F3E4D6"/>
<path d="M165.4 9.40998C165.83 9.40998 166.32 8.94998 166.83 8.94998C167.39 8.94998 167.88 9.37998 167.95 9.86998C168.05 10.66 168.21 11.25 168.28 11.68C168.48 12.8 168.74 13.26 168.74 14C168.74 14.56 168.23 15.05 167.57 15.05C166.91 15.05 166.55 13.95 165.78 13.42C164.99 12.78 163.84 12.12 162.72 12.12C161.7 12.12 160.88 12.78 160.88 13.6C160.88 14.95 162.51 14.77 164.86 15.74C167.62 16.86 169.63 18.32 169.63 21.33C169.63 25.62 165.83 27.81 162.02 27.81C160.13 27.81 159.08 27.25 158.19 27.25C157.76 27.25 157.55 27.38 157.19 27.38C156.14 27.38 155.91 24.27 155.91 23.25C155.91 22.15 156.34 21.54 156.96 21.54C157.88 21.54 158.34 23 159.21 23.61C160.08 24.2 161.05 24.66 162.17 24.66C163.04 24.66 164.37 24.38 164.37 23.31C164.37 21.75 161.33 21.45 160.08 20.99C157.58 20.07 155.94 18.26 155.94 15.63C155.94 12.31 158.21 9.11998 162.17 9.11998C163.24 9.11998 164.42 9.42998 165.39 9.42998L165.4 9.40998Z" fill="#F3E4D6"/>
<path d="M94.26 31.46C94.69 31.46 95.18 31 95.69 31C96.25 31 96.74 31.43 96.81 31.92C96.91 32.71 97.07 33.3 97.14 33.73C97.34 34.85 97.6 35.31 97.6 36.05C97.6 36.61 97.09 37.1 96.43 37.1C95.77 37.1 95.41 36 94.64 35.47C93.85 34.83 92.7 34.17 91.58 34.17C90.56 34.17 89.74 34.83 89.74 35.65C89.74 37 91.37 36.82 93.72 37.79C96.48 38.91 98.49 40.37 98.49 43.38C98.49 47.67 94.69 49.86 90.88 49.86C88.99 49.86 87.94 49.3 87.05 49.3C86.62 49.3 86.41 49.43 86.05 49.43C85 49.43 84.77 46.32 84.77 45.29C84.77 44.19 85.2 43.58 85.82 43.58C86.74 43.58 87.2 45.04 88.07 45.65C88.94 46.24 89.91 46.7 91.03 46.7C91.9 46.7 93.23 46.42 93.23 45.35C93.23 43.79 90.19 43.49 88.94 43.03C86.44 42.11 84.8 40.3 84.8 37.67C84.8 34.35 87.07 31.16 91.03 31.16C92.1 31.16 93.28 31.47 94.25 31.47L94.26 31.46Z" fill="#F3E4D6"/>
<path d="M103.47 47C104.21 46.87 104.49 46.39 104.62 45.67C104.85 44.29 104.85 41.97 104.85 41.13C104.85 39.19 104.85 36.82 104.75 35.05C104.72 34.69 104.49 34.49 104.04 34.49C103.3 34.49 102.41 34.92 101.87 35.66C101.21 36.58 101.16 37.68 100.13 37.68C99.39 37.68 99.01 37.04 99.01 36.35C99.01 34.95 99.24 33.54 99.32 32.6C99.4 31.63 99.55 31.37 100.09 31.37C100.65 31.37 103.28 31.45 108.39 31.45C113.16 31.45 115.67 31.37 116.28 31.37C116.99 31.37 117.12 31.55 117.12 32.26C117.12 33.74 117.02 35.76 117.02 36.75C117.02 37.26 116.59 37.67 116.02 37.67C114.95 37.67 115.08 36.24 114.26 35.4C113.72 34.84 112.96 34.4 112.19 34.4C111.68 34.4 111.53 34.58 111.42 35.57C111.29 37 111.29 38.48 111.29 40.06C111.29 41.95 111.29 43.86 111.65 45.88C111.75 46.47 112.13 46.93 112.75 47.13C113.18 47.31 113.62 47.51 113.62 48.2C113.62 49.2 113.06 49.3 112.19 49.3C111.12 49.3 109.92 49.22 108.13 49.22C106.09 49.22 104.58 49.3 103.69 49.3C102.59 49.3 102.18 49.05 102.18 48.41C102.18 47.29 102.82 47.11 103.48 46.98L103.47 47Z" fill="#F3E4D6"/>
<path d="M118.76 46.88C119.12 46.62 119.37 46.24 119.47 45.22C119.57 44.17 119.6 42.95 119.6 41.16C119.6 39.04 119.6 37.31 119.5 35.08C119.47 34.65 119.27 33.73 118.81 33.6C118.3 33.45 118.17 33.04 118.17 32.58C118.17 32.17 118.32 31.46 118.86 31.46C119.96 31.46 121.54 31.54 122.89 31.54C123.76 31.54 126.67 31.34 128.48 31.34C133.41 31.34 135.37 33.46 135.37 36.8C135.37 38.28 134.35 39.74 132.79 40.22C132.64 40.27 132.56 40.42 132.56 40.53C132.56 40.64 132.59 40.73 132.66 40.86C133.68 42.26 136.36 45.17 136.82 45.74C137.08 46.05 137.83 46.87 138.12 46.89C138.32 46.9 138.74 47.01 139.13 46.42C139.36 46.08 140.67 46.7 140.67 47.82C140.67 48.17 141.1 49.32 139.54 49.34H131.87C131.18 49.34 130.95 48.98 130.29 47.83C129.29 46.09 127.89 42.93 127.43 42.09C127.3 41.84 126.87 41.61 126.46 41.61C126.13 41.61 125.97 41.76 125.97 42.2C125.97 43.55 125.97 45.34 126.25 46.23C126.38 46.66 126.76 46.79 127.19 46.92C127.8 47.07 128.47 47.25 128.47 48.43C128.47 49.35 127.63 49.35 126.91 49.35C125.91 49.35 124.69 49.27 123.18 49.27C121.32 49.27 120.14 49.35 119.04 49.35C118.27 49.35 118.1 48.69 118.1 47.97C118.1 47.56 118.35 47.15 118.74 46.9L118.76 46.88ZM126.62 38.81C128.1 38.81 128.87 38.02 128.87 36.59C128.87 35.26 128.03 34.19 126.7 34.19C126.01 34.19 125.86 34.68 125.86 36.21C125.86 36.72 125.86 38 125.91 38.41C125.96 38.77 126.27 38.82 126.62 38.82V38.81Z" fill="#F3E4D6"/>
<path d="M146.2 31.53C149.16 31.53 151.66 31.45 153.35 31.45C154.24 31.45 154.37 31.78 154.37 32.52C154.37 33.34 154.37 35.3 154.32 36.09C154.32 37.29 153.99 37.7 153.2 37.7C152.66 37.7 152.31 37.37 152.13 36.81C151.8 35.81 151.44 35.2 150.8 34.85C150.19 34.52 148.5 34.34 146.64 34.34C146.08 34.34 146.05 34.47 146.05 35.36V37.99C146.05 38.35 146.46 38.4 146.74 38.4C147.48 38.4 147.71 38.12 147.94 37.48C148.14 36.94 148.48 36.51 149.24 36.51C149.88 36.51 150.34 36.74 150.34 37.51C150.34 38.15 150.21 39.4 150.21 40.24C150.21 41.21 150.26 41.77 150.26 42.44C150.26 43.46 150.23 44.15 148.98 44.15C147.98 44.15 147.83 43.33 147.73 42.67C147.63 42.08 147.3 41.57 146.27 41.57C146.14 41.57 146.01 41.72 146.01 41.85V44.51C146.01 45.48 146.16 46.37 147.36 46.37C148.56 46.37 149.53 46.22 150.32 45.94C151.42 45.56 152.03 44.92 152.57 43.87C152.9 43.21 153.13 42.98 153.49 42.98C154.28 42.98 154.79 43.29 154.79 44.13C154.79 44.41 154.53 47.17 154.38 48.39C154.33 48.88 154.23 49.33 153.69 49.33C151.6 49.33 149.02 49.25 145.93 49.25C143.45 49.25 141.46 49.33 140.01 49.33C139.04 49.33 137.74 49.3 137.74 48.08C137.74 47.01 138.15 47.03 138.58 46.88C138.94 46.73 139.19 46.45 139.24 46.09C139.44 44.71 139.55 42.85 139.55 41.9V35.24C139.55 34.53 139.37 33.99 138.63 33.76C138.17 33.63 137.79 33.28 137.79 32.56C137.79 31.84 138.05 31.46 138.86 31.46C141.11 31.46 142.92 31.54 146.19 31.54L146.2 31.53Z" fill="#F3E4D6"/>
<path d="M164.4 31.53C167.36 31.53 169.86 31.45 171.55 31.45C172.44 31.45 172.57 31.78 172.57 32.52C172.57 33.34 172.57 35.3 172.52 36.09C172.52 37.29 172.19 37.7 171.4 37.7C170.86 37.7 170.51 37.37 170.33 36.81C170 35.81 169.64 35.2 169 34.85C168.39 34.52 166.7 34.34 164.84 34.34C164.28 34.34 164.25 34.47 164.25 35.36V37.99C164.25 38.35 164.66 38.4 164.94 38.4C165.68 38.4 165.91 38.12 166.14 37.48C166.34 36.94 166.68 36.51 167.44 36.51C168.08 36.51 168.54 36.74 168.54 37.51C168.54 38.15 168.41 39.4 168.41 40.24C168.41 41.21 168.46 41.77 168.46 42.44C168.46 43.46 168.43 44.15 167.18 44.15C166.18 44.15 166.03 43.33 165.93 42.67C165.83 42.08 165.5 41.57 164.47 41.57C164.34 41.57 164.21 41.72 164.21 41.85V44.51C164.21 45.48 164.36 46.37 165.56 46.37C166.76 46.37 167.73 46.22 168.52 45.94C169.62 45.56 170.23 44.92 170.77 43.87C171.1 43.21 171.33 42.98 171.69 42.98C172.48 42.98 172.99 43.29 172.99 44.13C172.99 44.41 172.73 47.17 172.58 48.39C172.53 48.88 172.43 49.33 171.89 49.33C169.8 49.33 167.22 49.25 164.13 49.25C161.65 49.25 159.66 49.33 158.21 49.33C157.24 49.33 155.94 49.3 155.94 48.08C155.94 47.01 156.35 47.03 156.78 46.88C157.14 46.73 157.39 46.45 157.44 46.09C157.64 44.71 157.75 42.85 157.75 41.9V35.24C157.75 34.53 157.57 33.99 156.83 33.76C156.37 33.63 155.99 33.28 155.99 32.56C155.99 31.84 156.25 31.46 157.06 31.46C159.31 31.46 161.12 31.54 164.39 31.54L164.4 31.53Z" fill="#F3E4D6"/>
<path d="M178.62 47C179.36 46.87 179.64 46.39 179.77 45.67C180 44.29 180 41.97 180 41.13C180 39.19 180 36.82 179.9 35.05C179.87 34.69 179.64 34.49 179.19 34.49C178.45 34.49 177.56 34.92 177.02 35.66C176.36 36.58 176.31 37.68 175.28 37.68C174.54 37.68 174.16 37.04 174.16 36.35C174.16 34.95 174.39 33.54 174.47 32.6C174.55 31.63 174.7 31.37 175.24 31.37C175.8 31.37 178.43 31.45 183.54 31.45C188.31 31.45 190.82 31.37 191.43 31.37C192.14 31.37 192.27 31.55 192.27 32.26C192.27 33.74 192.17 35.76 192.17 36.75C192.17 37.26 191.74 37.67 191.17 37.67C190.1 37.67 190.23 36.24 189.41 35.4C188.87 34.84 188.11 34.4 187.34 34.4C186.83 34.4 186.68 34.58 186.57 35.57C186.44 37 186.44 38.48 186.44 40.06C186.44 41.95 186.44 43.86 186.8 45.88C186.9 46.47 187.28 46.93 187.9 47.13C188.33 47.31 188.77 47.51 188.77 48.2C188.77 49.2 188.21 49.3 187.34 49.3C186.27 49.3 185.07 49.22 183.28 49.22C181.24 49.22 179.73 49.3 178.84 49.3C177.74 49.3 177.33 49.05 177.33 48.41C177.33 47.29 177.97 47.11 178.63 46.98L178.62 47Z" fill="#F3E4D6"/>
<path d="M90.28 54.65C90.5 54.65 90.74 54.42 90.99 54.42C91.27 54.42 91.51 54.64 91.55 54.88C91.6 55.28 91.68 55.57 91.72 55.79C91.82 56.35 91.95 56.58 91.95 56.95C91.95 57.23 91.7 57.47 91.36 57.47C91.02 57.47 90.85 56.92 90.47 56.65C90.07 56.33 89.5 56 88.94 56C88.43 56 88.02 56.33 88.02 56.74C88.02 57.42 88.84 57.33 90.01 57.81C91.39 58.37 92.4 59.1 92.4 60.6C92.4 62.74 90.5 63.84 88.6 63.84C87.66 63.84 87.13 63.56 86.69 63.56C86.47 63.56 86.37 63.62 86.19 63.62C85.67 63.62 85.55 62.06 85.55 61.55C85.55 61 85.77 60.7 86.07 60.7C86.53 60.7 86.76 61.43 87.19 61.73C87.62 62.02 88.11 62.25 88.67 62.25C89.1 62.25 89.77 62.11 89.77 61.57C89.77 60.79 88.25 60.64 87.63 60.41C86.38 59.95 85.56 59.05 85.56 57.73C85.56 56.07 86.7 54.48 88.67 54.48C89.21 54.48 89.79 54.63 90.28 54.63V54.65Z" fill="#F3E4D6"/>
<path d="M102.58 59.14C102.58 62.1 100.53 63.86 97.75 63.86C94.43 63.86 92.98 62.3 92.98 59.42C92.98 56.22 94.93 54.37 97.69 54.37C100.45 54.37 102.59 55.7 102.59 59.14H102.58ZM97.46 55.71C96.58 55.71 96.39 57.04 96.39 57.8C96.39 59.65 96.62 62.37 98.02 62.37C98.66 62.37 99.14 61.85 99.14 60.15C99.14 58.45 98.73 55.71 97.46 55.71Z" fill="#F3E4D6"/>
<path d="M107.84 55.87C107.65 55.91 107.43 55.95 107.41 56.15C107.28 57.04 107.26 58 107.26 58.94C107.26 59.88 107.26 60.87 107.29 61.73C107.3 61.98 107.47 62.35 107.81 62.46C108.08 62.54 108.19 62.7 108.19 62.87C108.19 63.27 108.11 63.58 107.76 63.58C107.2 63.58 106.32 63.54 105.63 63.54C104.8 63.54 104.05 63.58 103.47 63.58C103.27 63.58 103.16 63.26 103.16 63.08C103.16 62.79 103.24 62.57 103.47 62.47C103.87 62.3 103.9 62.25 103.98 61.92C104.15 60.85 104.16 59.9 104.16 58.76C104.16 57.83 104.15 57.19 104.11 56.3C104.1 56.01 104.01 55.93 103.68 55.83C103.44 55.75 103.39 55.6 103.39 55.23C103.39 54.9 103.53 54.66 103.89 54.66C104.49 54.67 104.96 54.71 105.97 54.71C106.49 54.71 107.37 54.67 107.79 54.67C108.08 54.67 108.25 54.98 108.25 55.26C108.25 55.63 108.11 55.82 107.85 55.87H107.84Z" fill="#F3E4D6"/>
<path d="M109.18 62.43C109.47 62.33 109.52 61.98 109.55 61.23C109.58 60.15 109.58 59.41 109.58 58.36C109.58 57.67 109.57 56.98 109.5 56.31C109.46 55.98 109.33 55.89 109.1 55.79C108.9 55.7 108.78 55.57 108.78 55.32C108.78 55.07 108.84 54.66 109.2 54.66C109.71 54.66 110.32 54.7 111.34 54.7C112.27 54.7 112.92 54.66 113.32 54.66C113.72 54.66 113.8 54.78 113.8 54.99C113.8 55.82 113.55 55.82 113.28 55.84C112.97 55.85 112.86 56.07 112.81 56.54C112.82 56.48 112.71 58.03 112.71 59.53C112.71 60.15 112.74 60.78 112.79 61.26C112.87 62.03 113.05 62.09 113.85 62.09C114.48 62.09 115.11 61.96 115.48 61.54C115.9 61.05 116.18 60.32 116.69 60.32C116.96 60.32 117.24 60.45 117.24 60.75C117.24 61.05 117.07 62.24 116.97 63.06C116.93 63.38 116.89 63.58 116.78 63.58C115.53 63.58 114.47 63.54 112.85 63.54C111.48 63.54 110.2 63.58 109.47 63.58C109.07 63.58 108.74 63.52 108.74 62.99C108.74 62.61 108.83 62.54 109.17 62.43H109.18Z" fill="#F3E4D6"/>
<path d="M121.38 62.37C121.58 62.31 121.61 62.22 121.67 61.95C121.81 60.71 121.81 59.69 121.81 58.58C121.81 57.62 121.8 56.67 121.77 56.42C121.73 56.02 121.71 55.93 121.4 55.82C121.15 55.73 121.06 55.65 121.06 55.22C121.06 54.76 121.28 54.65 121.95 54.65C123.39 54.65 124.48 54.59 125.66 54.59C126.96 54.59 128.05 54.68 128.9 55.44C129.56 56.03 129.98 56.75 129.98 57.77C129.98 59.61 128.37 60.21 126.8 60.21C126.06 60.21 125.69 60.08 125.33 60.08C125.2 60.08 125.15 60.17 125.15 60.53C125.15 60.95 125.15 61.54 125.46 62.06C125.57 62.28 125.77 62.3 126.15 62.33C126.74 62.37 126.86 62.65 126.86 63.07C126.86 63.45 126.68 63.58 126.32 63.58C125.87 63.58 124.78 63.54 123.95 63.54C122.93 63.54 122.2 63.58 121.68 63.58C121.16 63.58 120.93 63.38 120.93 62.87C120.93 62.54 121.02 62.47 121.36 62.37H121.38ZM125.07 58.07C125.1 58.59 125.13 58.71 125.64 58.71C126.26 58.71 126.69 58.25 126.69 57.41C126.69 56.84 126.1 56.08 125.38 56.08C125.11 56.08 125.04 56.2 125.04 56.87C125.04 57.29 125.07 57.69 125.08 58.07H125.07Z" fill="#F3E4D6"/>
<path d="M130.83 62.36C131.01 62.23 131.14 62.04 131.19 61.53C131.24 61.01 131.25 60.39 131.25 59.5C131.25 58.44 131.25 57.57 131.2 56.46C131.19 56.24 131.09 55.78 130.86 55.72C130.6 55.64 130.54 55.44 130.54 55.21C130.54 55.01 130.62 54.65 130.88 54.65C131.43 54.65 132.22 54.69 132.9 54.69C133.33 54.69 134.79 54.59 135.69 54.59C138.15 54.59 139.13 55.65 139.13 57.32C139.13 58.06 138.62 58.79 137.84 59.03C137.76 59.06 137.73 59.13 137.73 59.18C137.73 59.23 137.74 59.28 137.78 59.35C138.29 60.05 139.63 61.51 139.86 61.79C139.99 61.94 140.18 62.1 140.32 62.1C140.42 62.1 140.5 62.04 140.59 62.04C140.79 62.04 140.83 62.23 140.83 62.4C140.83 63.27 140.03 63.6 139.31 63.6H137.38C137.04 63.6 136.92 63.42 136.59 62.85C136.09 61.98 135.39 60.4 135.16 59.98C135.1 59.85 134.88 59.74 134.68 59.74C134.51 59.74 134.44 59.82 134.44 60.03C134.44 60.71 134.44 61.6 134.58 62.05C134.64 62.27 134.84 62.33 135.05 62.39C135.36 62.47 135.69 62.56 135.69 63.14C135.69 63.6 135.27 63.6 134.91 63.6C134.41 63.6 133.8 63.56 133.05 63.56C132.12 63.56 131.53 63.6 130.98 63.6C130.6 63.6 130.51 63.27 130.51 62.91C130.51 62.71 130.64 62.5 130.83 62.37V62.36ZM134.76 58.33C135.5 58.33 135.88 57.93 135.88 57.22C135.88 56.56 135.46 56.02 134.8 56.02C134.46 56.02 134.38 56.26 134.38 57.03C134.38 57.28 134.38 57.92 134.41 58.13C134.44 58.31 134.59 58.33 134.77 58.33H134.76Z" fill="#F3E4D6"/>
<path d="M150.5 59.14C150.5 62.1 148.45 63.86 145.67 63.86C142.35 63.86 140.9 62.3 140.9 59.42C140.9 56.22 142.85 54.37 145.61 54.37C148.37 54.37 150.51 55.7 150.51 59.14H150.5ZM145.39 55.71C144.51 55.71 144.32 57.04 144.32 57.8C144.32 59.65 144.55 62.37 145.95 62.37C146.59 62.37 147.07 61.85 147.07 60.15C147.07 58.45 146.66 55.71 145.39 55.71Z" fill="#F3E4D6"/>
<path d="M155.47 55.87C155.28 55.91 155.19 56.01 155.16 56.21C155.03 57.1 155.03 58 155.03 58.94C155.03 60.02 155.06 61.15 155.06 62.01C155.06 63.76 154.37 64.96 153.53 65.79C153.02 66.3 151.96 66.76 151.12 66.76C149.9 66.76 149.23 66.21 149.23 65.76C149.23 64.48 150.21 63.71 150.54 63.71C150.87 63.71 150.88 64.07 150.97 64.36C151.03 64.58 151.14 64.77 151.4 64.77C151.62 64.77 151.74 64.37 151.82 62.65C151.87 61.45 151.9 60.05 151.9 59.3C151.9 58.47 151.9 57.64 151.85 56.3C151.84 56.1 151.71 55.96 151.45 55.9C150.81 55.77 150.71 55.65 150.71 55.22C150.71 54.89 150.9 54.65 151.26 54.65C151.86 54.66 152.69 54.7 153.7 54.7C154.22 54.7 154.98 54.66 155.4 54.66C155.67 54.66 155.73 54.83 155.73 55.25C155.73 55.67 155.65 55.82 155.46 55.86L155.47 55.87Z" fill="#F3E4D6"/>
<path d="M160.47 54.69C161.95 54.69 163.2 54.65 164.04 54.65C164.49 54.65 164.55 54.82 164.55 55.19C164.55 55.6 164.55 56.58 164.52 56.98C164.52 57.58 164.35 57.78 163.96 57.78C163.69 57.78 163.51 57.61 163.42 57.33C163.25 56.83 163.08 56.53 162.76 56.35C162.45 56.18 161.61 56.1 160.68 56.1C160.4 56.1 160.39 56.16 160.39 56.61V57.92C160.39 58.1 160.59 58.12 160.73 58.12C161.1 58.12 161.21 57.98 161.33 57.66C161.43 57.39 161.6 57.17 161.98 57.17C162.3 57.17 162.53 57.29 162.53 57.67C162.53 57.99 162.47 58.61 162.47 59.04C162.47 59.52 162.5 59.8 162.5 60.14C162.5 60.65 162.49 60.99 161.86 60.99C161.36 60.99 161.29 60.58 161.24 60.25C161.19 59.96 161.02 59.7 160.51 59.7C160.45 59.7 160.38 59.78 160.38 59.84V61.17C160.38 61.65 160.46 62.1 161.06 62.1C161.66 62.1 162.14 62.02 162.54 61.88C163.09 61.69 163.39 61.37 163.66 60.85C163.83 60.52 163.94 60.4 164.12 60.4C164.52 60.4 164.77 60.55 164.77 60.97C164.77 61.11 164.64 62.49 164.57 63.1C164.54 63.34 164.49 63.57 164.23 63.57C163.18 63.57 161.9 63.53 160.35 63.53C159.11 63.53 158.12 63.57 157.39 63.57C156.91 63.57 156.25 63.56 156.25 62.95C156.25 62.41 156.45 62.43 156.67 62.35C156.85 62.27 156.98 62.13 157 61.95C157.1 61.26 157.15 60.33 157.15 59.86V56.53C157.15 56.17 157.06 55.91 156.69 55.79C156.46 55.73 156.27 55.55 156.27 55.19C156.27 54.83 156.4 54.64 156.81 54.64C157.93 54.64 158.84 54.68 160.47 54.68V54.69Z" fill="#F3E4D6"/>
<path d="M171.86 54.59C172.09 54.59 172.2 54.35 172.48 54.35C172.89 54.35 173.08 54.58 173.14 54.96C173.19 55.3 173.25 55.62 173.31 55.9C173.4 56.37 173.5 56.75 173.5 57.12C173.5 57.62 173.32 57.85 172.82 57.85C172.32 57.85 172.07 57.15 171.43 56.57C171.09 56.28 170.59 55.98 170.15 55.98C169.42 55.98 168.95 56.94 168.95 58.49C168.95 60.42 169.66 62.07 170.79 62.07C171.33 62.07 171.76 61.84 172.13 61.39C172.44 61.02 172.54 60.55 173.05 60.55C173.28 60.55 173.42 60.75 173.45 61C173.48 61.25 173.48 61.49 173.48 61.75C173.48 62.43 173.39 62.96 173.03 63.19C172.37 63.64 170.93 63.83 169.98 63.83C167.03 63.83 165.35 62.04 165.35 59.17C165.35 57.91 165.76 56.38 166.65 55.48C167.52 54.61 168.83 54.35 170.02 54.35C171.21 54.35 171.31 54.57 171.86 54.57V54.59Z" fill="#F3E4D6"/>
<path d="M176.25 62.42C176.62 62.36 176.76 62.11 176.82 61.76C176.93 61.07 176.93 59.91 176.93 59.49C176.93 58.52 176.93 57.33 176.88 56.45C176.87 56.27 176.75 56.17 176.52 56.17C176.15 56.17 175.7 56.39 175.44 56.76C175.11 57.22 175.08 57.77 174.57 57.77C174.2 57.77 174.01 57.45 174.01 57.11C174.01 56.41 174.13 55.71 174.16 55.23C174.2 54.74 174.27 54.62 174.54 54.62C174.81 54.62 176.13 54.66 178.69 54.66C181.08 54.66 182.33 54.62 182.63 54.62C182.99 54.62 183.05 54.71 183.05 55.07C183.05 55.81 183 56.82 183 57.32C183 57.57 182.78 57.78 182.5 57.78C181.96 57.78 182.03 57.07 181.62 56.65C181.35 56.37 180.97 56.15 180.59 56.15C180.33 56.15 180.26 56.24 180.21 56.74C180.15 57.45 180.15 58.19 180.15 58.99C180.15 59.93 180.15 60.89 180.33 61.9C180.38 62.19 180.57 62.42 180.88 62.52C181.1 62.61 181.31 62.71 181.31 63.06C181.31 63.56 181.03 63.61 180.6 63.61C180.06 63.61 179.46 63.57 178.57 63.57C177.55 63.57 176.8 63.61 176.35 63.61C175.8 63.61 175.6 63.48 175.6 63.16C175.6 62.6 175.92 62.51 176.25 62.45V62.42Z" fill="#F3E4D6"/>
<path d="M43.69 26.01L43.53 25.89C40.57 23.55 35.96 23.45 32.42 24.11C29.29 24.56 27.79 27.83 25.99 29.98C25.09 31.04 25.19 32.24 24.63 33.45C23.49 35.05 24.32 37.19 25.06 38.85C25.77 41.52 27.03 43.05 28.95 44.68C29.94 45.73 30.71 47.08 31.83 47.68C34.86 48.64 38.01 48.23 41.07 48C44.89 47.07 47.08 43.51 48.64 40.1C49.17 38.66 48.77 36.57 48.93 34.73C49.29 31.1 46.35 28.02 43.7 26.01H43.69Z" fill="#F3E4D6"/>
<path d="M36.4301 14.53C24.5601 14.53 14.9301 24.16 14.9301 36.03C14.9301 47.9 24.5601 57.53 36.4301 57.53C48.3001 57.53 57.9301 47.9 57.9301 36.03C57.9301 24.16 48.3001 14.53 36.4301 14.53ZM46.3201 49.22C42.9401 51.43 39.3601 51.55 35.5901 51.38C31.6801 51.63 28.1201 49.8 25.4501 47.15C24.3401 46.19 23.3601 45.69 22.5401 44.36C21.9401 43.3 21.6101 41.94 21.2401 40.63C20.5601 38.37 19.6101 36.1 20.2001 33.75C21.2401 27.71 26.1101 22.46 32.1401 21.15C36.5501 20.35 41.8201 20.11 45.5701 23.07L45.7301 23.2C48.4201 25.7 51.5301 28.53 52.6801 32.05C53.2101 34.69 52.3501 37.72 52.0701 40.31C51.5101 43.74 49.0901 47.11 46.3201 49.23V49.22Z" fill="#F3E4D6"/>
<path d="M11.2 51.88C12.46 51.51 14.1 50.76 15.25 50.99C16.81 51.41 17.02 52.73 16.61 53.61C16.09 54.73 14.5 55.9 13.28 56.25C7.57002 58.6 1.24002 56.24 7.12002 49.6C8.00002 48.61 9.11002 47.93 10.1 47.14C10.35 46.87 10.04 46.97 9.61002 47.04C5.50002 47.89 -3.76998 45.85 1.69002 40.2C3.93002 38.04 10.49 35.46 11.9 38.82C12.28 39.79 11.38 40.81 10.51 41.17C9.58002 41.59 6.45002 42.59 6.45002 42.9C6.45002 43.25 8.00002 43.09 8.68002 43C10.08 42.81 11.71 42.54 12.92 43.21C14.43 44.04 15.33 46.53 14.18 48.04C13.03 49.55 8.55002 52.86 11.21 51.88H11.2Z" fill="#F6BC18"/>
<path d="M47.75 10.15C47.75 10.15 49.16 7.93 51.26 5.95C52.89 4.41 56.22 3.81 57.1 5.45C59.2 9.36 54.73 17.98 52.29 16.47C50.39 15.31 51.64 13.32 52.48 11.45C52.66 11.04 52.12 10.71 51.83 11.05C51.08 11.95 49.81 13.4 48.65 13.9C47.77 14.27 46.98 13.87 46.03 13.45C45.08 13.03 44.83 12.92 43.89 12.2C43.14 11.63 42.98 9.93 42.98 8.37C42.98 8.05 42.52 7.99 42.44 8.3C41.97 10.13 41.42 11.77 39.72 11.65C35.88 11.37 38.35 4.73 40.72 1.97C45.76 -3.92 48.29 4.89 47.33 9.98C47.28 10.24 47.61 10.38 47.76 10.17L47.75 10.15Z" fill="#F6BC18"/>
<path d="M42.94 72.11C38.24 70.34 35.67 59.34 40.75 60.79C41.77 61.08 42.3 63.35 42.87 64.84C43.1 65.44 43.98 65.28 44 64.64C44.09 61.4 43.96 58.19 47.99 58.54C49.75 58.69 50.75 59.86 51.95 60.87C52.45 61.29 53.18 60.72 52.87 60.14C52.23 58.93 51.52 57.74 51.34 56.51C51.2 55.56 52.27 54.86 53.08 55.38C55.9 57.19 57.67 59.7 57.71 63.33C57.8 71.19 50.02 65.25 47.41 62.06C48.36 65.33 48.2 74.09 42.94 72.11Z" fill="#F6BC18"/>
<path d="M62.38 25.18C65.08 23.06 71.78 15.88 65.14 15.03C61.13 14.52 58.21 16.12 56.04 19.11C55.27 20.17 56.28 21.65 57.54 21.29C58.78 20.93 61.13 19.33 62.78 18.93C62.25 20.76 58.65 21.73 58.37 22.72C58.18 23.42 58.65 24.64 59.15 25.81C59.54 26.71 59.58 27.46 59.84 28C60.06 28.46 60.54 28.91 60.98 28.97C62.07 29.13 63.98 28.92 65.96 28.92C66.25 28.92 66.32 29.33 66.05 29.44C62.81 30.74 60.79 31.3 60.92 33.16C61.04 34.88 66.01 35.46 70 32.54C77.77 26.84 67.89 24.28 62.38 25.18Z" fill="#F6BC18"/>
<path d="M19.03 10.47C18.75 10.81 19.91 12.31 20.07 12.59C20.5 13.33 21.69 14.8 21.39 15.74C21.25 16.18 20.37 17.02 19.92 17.17C19.53 17.29 18.97 17.1 18.65 16.92C18.32 16.74 18.02 16.48 17.75 16.22C17.11 15.6 16.6 14.86 16.16 14.09C15.42 12.8 14.86 11.3 14.72 9.53998C14.52 0.989984 24.26 6.14998 25.58 12.42C25.77 13.3 25.28 13.67 24.63 14.07C24.08 14.41 23.38 14.53 22.59 14.07C21.3 13.33 19.34 10.23 19.02 10.47H19.03Z" fill="#F6BC18"/>
<path d="M63.08 52.71C63.3 52.11 58.12 49.35 59.05 47.25C60.6 43.74 67.03 49.47 67.68 52.12C70.9 60.52 59.19 58.99 55.9 53.1C54.7 50.95 56.39 50.06 58.28 50.4C59.82 50.68 62.85 53.06 63.09 52.71H63.08Z" fill="#F6BC18"/>
<path d="M29.99 7.82998C29.72 9.83998 30.4 12.67 27.95 12.76C27.6 12.77 27.25 12.64 27.04 12.37C24.33 8.82998 25.61 -1.15002 30.32 0.639981C32.94 1.74998 34.3 4.48998 34.91 7.03998C35.39 9.18998 35.5 12.39 32.62 11.53C31.26 11.13 30.91 8.90998 30.32 7.77998C30.25 7.63998 30.02 7.67998 29.99 7.82998Z" fill="#F6BC18"/>
<path d="M61.48 39.36C61.11 38.98 61.46 37.65 61.88 37.34C62.3 37.03 63.15 36.95 64.18 37.09C68.65 37.7 74.66 41.96 71.55 45.02C69.45 46.94 66.4 47.04 63.82 46.53C61.67 46.08 60.27 44.72 60.87 43.02C61.59 40.97 64.85 42.58 67.72 42.13C67.86 42.11 67.87 41.92 67.75 41.86C65.89 41.06 62.25 40.15 61.47 39.35L61.48 39.36Z" fill="#F6BC18"/>
<path d="M6.27005 28.96C6.15005 28.96 6.11005 29.13 6.22005 29.18C7.55005 29.79 9.80005 30.3 10.94 30.8C11.46 31.03 11.79 31.56 11.79 32.13C11.79 33.36 11.53 34.6 10.45 34.81C7.48005 35.54 -2.19995 31.16 0.620046 27.49C2.22005 25.41 5.04005 25.07 7.41005 25.25C9.50005 25.5 11.89 25.83 12.65 27.61C12.89 28.16 12.46 28.78 11.86 28.81L6.26005 28.96H6.27005Z" fill="#F6BC18"/>
<path d="M30.4 64.96C30.42 65.14 30.67 65.2 30.76 65.04C31.16 64.31 31.43 63.53 31.76 62.77C32.02 62.18 32.33 61.22 32.92 60.87C33.09 60.77 33.3 60.73 33.5 60.73C35.05 60.73 35.55 61.15 35.55 62.16C35.55 64.54 35.16 66.06 34.11 68.14C29.64 77.03 25.18 70.31 26.1 63.19C26.28 61.76 26.71 59.92 27.79 59.62C28.87 59.32 29.9 59.94 30.19 60.18C30.96 60.82 30.19 63.35 30.39 64.97L30.4 64.96Z" fill="#F6BC18"/>
<path d="M13.56 25.42C12.8 26.19 8.79005 24.14 7.25005 22.82C2.55005 18.79 4.34005 14.21 11.15 15.35C14.3 15.88 16.36 18.01 16.79 19.66C17.05 20.65 16.72 21.47 15.69 21.68C14.75 21.87 13.22 21.54 11.01 20.34C10.87 20.26 10.71 20.42 10.81 20.56C11.43 21.42 13.2 22.93 14.03 23.9C14.37 24.3 13.95 25.04 13.57 25.43L13.56 25.42Z" fill="#F6BC18"/>
<path d="M19.17 55.37C19.73 54.91 20.56 54.88 21.1 55.37C21.56 55.77 21.87 56.32 21.87 56.94C21.87 58.79 19.86 60.64 19.06 62.64C18.95 62.9 19.1 62.98 19.31 62.8C20.71 61.62 22.72 58.98 23.68 58.37C24.92 57.58 26.48 58.88 25.82 60.65C25.55 61.39 23.87 63.69 23.14 64.75C19.43 69.49 13.51 69.1 15.56 60.92C16.24 58.22 17.86 56.43 19.17 55.36V55.37Z" fill="#F6BC18"/>
</g>
</g>
<defs>
<clipPath id="clip0_86_5">
<rect width="192.25" height="72.4" fill="white"/>
</clipPath>
<clipPath id="clip1_86_5">
<rect width="192.25" height="72.4" fill="white"/>
</clipPath>
</defs>
</svg>
